<svg xmlns="http://www.w3.org/2000/svg" width="600" height="300" viewBox="0 0 600 300"><rect width="100%" height="100%" fill="#808080"/><path fill="#E5E7EB" d="M116.06 140.545h3.56v3.23h2.23v2.5h-2.23v6.73q0 .77.32 1.1.32.33.86.33.28 0 .48-.03.2-.03.47-.11l.3 2.58q-.53.18-1.05.27-.51.1-1.11.1-1.84 0-2.84-1.02-.99-1.01-.99-3.21v-6.74h-1.93v-2.5h1.93v-3.23Zm11.53-2.6v7.5q.63-.9 1.53-1.41.9-.5 2-.5 2.07 0 3.24 1.37 1.18 1.37 1.18 4.24v7.84h-3.56v-7.86q0-1.54-.55-2.18-.54-.64-1.61-.64-.74 0-1.3.26t-.93.74v9.68h-3.56v-19.04h3.56Zm14.38 5.83v13.21h-3.56v-13.21h3.56Zm0-5.83v2.67h-3.56v-2.67h3.56Zm10.08 15.4q0-.58-.57-1.01-.57-.43-2.11-.76-2.34-.47-3.53-1.41-1.19-.93-1.19-2.54 0-1.71 1.43-2.9 1.44-1.19 3.84-1.19 2.53 0 4.02 1.18 1.5 1.19 1.44 2.99l-.03.08h-3.44q0-.8-.51-1.3-.5-.5-1.48-.5-.87 0-1.36.42-.49.42-.49 1.06 0 .61.51 1 .52.39 2.11.7 2.44.48 3.63 1.43 1.18.95 1.18 2.61 0 1.78-1.53 2.91-1.52 1.13-4.02 1.13-2.64 0-4.17-1.34-1.53-1.34-1.46-3.05l.02-.07h3.26q.04 1.06.7 1.54.66.47 1.72.47.99 0 1.51-.39t.52-1.06Zm15.72-9.57v13.21h-3.57v-13.21h3.57Zm0-5.83v2.67h-3.57v-2.67h3.57Zm10.07 15.4q0-.58-.57-1.01-.57-.43-2.1-.76-2.35-.47-3.54-1.41-1.19-.93-1.19-2.54 0-1.71 1.44-2.9 1.43-1.19 3.84-1.19 2.52 0 4.02 1.18 1.49 1.19 1.43 2.99l-.02.08h-3.45q0-.8-.5-1.3-.51-.5-1.48-.5-.87 0-1.37.42-.49.42-.49 1.06 0 .61.52 1t2.1.7q2.45.48 3.63 1.43 1.18.95 1.18 2.61 0 1.78-1.52 2.91-1.53 1.13-4.03 1.13-2.64 0-4.17-1.34-1.53-1.34-1.46-3.05l.03-.07h3.26q.03 1.06.69 1.54.66.47 1.72.47.99 0 1.51-.39t.52-1.06Zm23.29 3.64h-3.56q-.2-.45-.34-.95-.14-.5-.2-1.03-.55.97-1.45 1.6-.9.64-2.14.64-2.08 0-3.2-1.07t-1.12-2.91q0-1.94 1.49-3.01 1.5-1.07 4.37-1.07h1.99v-1.05q0-.95-.5-1.48-.5-.52-1.48-.52-.87 0-1.34.42-.47.42-.47 1.16l-3.44-.01-.01-.07q-.09-1.67 1.45-2.89 1.54-1.21 4.04-1.21 2.37 0 3.85 1.2 1.47 1.2 1.47 3.42v5.46q0 .93.14 1.75.14.81.45 1.62Zm-6.82-2.38q.94 0 1.67-.46.73-.47.99-1.08v-1.87h-1.99q-1.14 0-1.72.57-.59.57-.59 1.37 0 .66.44 1.07.44.4 1.2.4Zm27.07-4.11v.25q0 2.93-1.35 4.71-1.36 1.79-3.79 1.79-1.04 0-1.84-.39-.81-.38-1.38-1.13v6.34h-3.55v-18.29h3.21l.21 1.56q.58-.86 1.41-1.33.82-.47 1.92-.47 2.45 0 3.81 1.91 1.35 1.92 1.35 5.05Zm-3.56.25v-.25q0-1.87-.63-3.03-.62-1.16-1.9-1.16-.81 0-1.37.33-.57.33-.9.94v5.78q.33.57.9.86.56.29 1.39.29 1.3 0 1.9-1.01.61-1.01.61-2.75Zm9.51-12.8v19.04h-3.57v-19.04h3.57Zm14.24 19.04h-3.56q-.2-.45-.34-.95-.14-.5-.2-1.03-.55.97-1.45 1.6-.89.64-2.14.64-2.07 0-3.2-1.07-1.12-1.07-1.12-2.91 0-1.94 1.5-3.01 1.49-1.07 4.36-1.07h1.99v-1.05q0-.95-.5-1.48-.5-.52-1.48-.52-.86 0-1.33.42-.47.42-.47 1.16l-3.45-.01-.01-.07q-.08-1.67 1.45-2.89 1.54-1.21 4.04-1.21 2.37 0 3.85 1.2t1.48 3.42v5.46q0 .93.14 1.75.14.81.44 1.62Zm-6.82-2.38q.94 0 1.67-.46.73-.47.99-1.08v-1.87h-1.99q-1.14 0-1.72.57-.59.57-.59 1.37 0 .66.44 1.07.44.4 1.2.4Zm14.48-.1q.95 0 1.52-.55.58-.56.58-1.49h3.23l.04.08q.05 2-1.51 3.35t-3.86 1.35q-2.96 0-4.56-1.87-1.6-1.87-1.6-4.8v-.36q0-2.92 1.6-4.8 1.59-1.88 4.54-1.88 2.44 0 3.94 1.39t1.45 3.66l-.03.07h-3.24q0-1.02-.57-1.7-.56-.68-1.55-.68-1.41 0-1.99 1.1-.58 1.1-.58 2.84v.36q0 1.77.58 2.85t2.01 1.08Zm13.24 2.74q-2.86 0-4.57-1.83-1.7-1.84-1.7-4.66v-.48q0-2.95 1.61-4.85 1.62-1.9 4.34-1.89 2.68 0 4.15 1.61 1.48 1.61 1.48 4.36v1.94h-7.89l-.02.07q.1 1.31.87 2.15.78.84 2.11.84 1.18 0 1.96-.24.79-.23 1.71-.75l.97 2.2q-.81.66-2.11 1.09-1.31.44-2.91.44Zm-.32-10.97q-.99 0-1.56.76-.57.76-.71 1.99l.04.06h4.37v-.32q0-1.13-.53-1.81-.53-.68-1.61-.68Zm11.18-8.33v7.5q.63-.9 1.53-1.41.9-.5 2-.5 2.07 0 3.24 1.37 1.18 1.37 1.18 4.24v7.84h-3.56v-7.86q0-1.54-.55-2.18-.54-.64-1.61-.64-.74 0-1.3.26t-.93.74v9.68h-3.56v-19.04h3.56Zm10.09 12.57v-.26q0-2.95 1.65-4.84 1.64-1.88 4.56-1.88 2.93 0 4.59 1.88 1.66 1.88 1.66 4.84v.26q0 2.98-1.65 4.85-1.66 1.88-4.57 1.88-2.93 0-4.59-1.88-1.65-1.87-1.65-4.85Zm3.55-.26v.26q0 1.81.63 2.9.64 1.09 2.06 1.09 1.37 0 2.02-1.1.64-1.1.64-2.89v-.26q0-1.75-.65-2.86-.65-1.12-2.04-1.12-1.38 0-2.02 1.12-.64 1.12-.64 2.86Zm14.86-12.31v19.04h-3.57v-19.04h3.57Zm2.38 12.8v-.25q0-3.13 1.35-5.05 1.34-1.91 3.8-1.91.99 0 1.78.43.79.42 1.39 1.22v-7.24h3.58v19.04h-3.07l-.29-1.61q-.62.91-1.47 1.39-.85.48-1.95.48-2.43 0-3.77-1.79-1.35-1.78-1.35-4.71Zm3.55-.25v.25q0 1.74.58 2.73.59 1 1.91 1 .77 0 1.34-.32.58-.31.94-.91v-5.62q-.36-.63-.93-.97-.57-.35-1.33-.35-1.3 0-1.91 1.16-.6 1.16-.6 3.03Zm16.95 6.75q-2.85 0-4.56-1.83-1.71-1.84-1.71-4.66v-.48q0-2.95 1.62-4.85 1.61-1.9 4.34-1.89 2.67 0 4.15 1.61 1.47 1.61 1.47 4.36v1.94h-7.88l-.03.07q.1 1.31.88 2.15.77.84 2.1.84 1.19 0 1.97-.24.78-.23 1.71-.75l.96 2.2q-.8.66-2.11 1.09-1.31.44-2.91.44Zm-.31-10.97q-.99 0-1.57.76-.57.76-.7 1.99l.03.06h4.37v-.32q0-1.13-.53-1.81-.53-.68-1.6-.68Zm15.02-2.6-.37 3.17-1.31-.04q-.79 0-1.31.33-.51.33-.78.93v8.92h-3.55v-13.21h3.31l.16 1.96q.46-1.04 1.2-1.62.74-.58 1.7-.58.27 0 .5.04.22.04.45.1Zm12.15 13.31h-3.56v-10.71h-1.97v-2.5h1.97v-1.46q0-2.22 1.28-3.43 1.28-1.2 3.6-1.2.45 0 .92.07.47.06 1.03.19l-.3 2.65q-.3-.05-.57-.09-.28-.04-.64-.04-.87 0-1.31.48-.45.48-.45 1.37v1.46h2.62v2.5h-2.62v10.71Zm3.89-6.47v-.26q0-2.95 1.65-4.84 1.65-1.88 4.57-1.88 2.93 0 4.59 1.88 1.66 1.88 1.66 4.84v.26q0 2.98-1.66 4.85-1.65 1.88-4.57 1.88-2.93 0-4.58-1.88-1.66-1.87-1.66-4.85Zm3.56-.26v.26q0 1.81.63 2.9.64 1.09 2.05 1.09 1.38 0 2.02-1.1.64-1.1.64-2.89v-.26q0-1.75-.64-2.86-.65-1.12-2.04-1.12-1.38 0-2.02 1.12-.64 1.12-.64 2.86Zm18.43-6.58-.38 3.17-1.31-.04q-.79 0-1.3.33t-.78.93v8.92h-3.56v-13.21h3.31l.16 1.96q.46-1.04 1.2-1.62.74-.58 1.71-.58.26 0 .49.04.23.04.46.1Zm18.97 13.31h-3.57q-.19-.45-.33-.95-.14-.5-.2-1.03-.55.97-1.45 1.6-.9.64-2.14.64-2.08 0-3.2-1.07t-1.12-2.91q0-1.94 1.49-3.01 1.5-1.07 4.37-1.07h1.99v-1.05q0-.95-.5-1.48-.51-.52-1.48-.52-.87 0-1.34.42-.47.42-.47 1.16l-3.44-.01-.01-.07q-.09-1.67 1.45-2.89 1.54-1.21 4.04-1.21 2.37 0 3.85 1.2 1.47 1.2 1.47 3.42v5.46q0 .93.14 1.75.14.81.45 1.62Zm-6.83-2.38q.94 0 1.68-.46.73-.47.99-1.08v-1.87h-1.99q-1.14 0-1.73.57-.58.57-.58 1.37 0 .66.44 1.07.44.4 1.19.4Zm8.88-10.83h3.32l.16 1.89q.66-1.01 1.62-1.57.97-.56 2.16-.56 2 0 3.13 1.26 1.12 1.25 1.12 3.94v8.25h-3.58v-8.24q0-1.33-.53-1.89-.54-.55-1.63-.55-.71 0-1.27.29-.56.28-.94.81v9.58h-3.56v-13.21Zm24.14 0v13.21h-3.56v-13.21h3.56Zm0-5.83v2.67h-3.56v-2.67h3.56Zm2.93 5.83h3.31l.15 1.75q.63-.95 1.59-1.47.96-.52 2.22-.52 1.27 0 2.17.56.9.56 1.37 1.7.61-1.07 1.58-1.66.98-.6 2.3-.6 1.95 0 3.08 1.35 1.13 1.35 1.13 4.1v8h-3.56v-8.01q0-1.5-.49-2.09-.49-.58-1.45-.58-.76 0-1.32.33-.55.34-.88.94 0 .23.01.4.01.16.01.33v8.68h-3.55v-8.01q0-1.46-.49-2.07-.49-.6-1.46-.6-.72 0-1.27.27-.54.28-.89.78v9.63h-3.56v-13.21Zm32.95 13.21h-3.56q-.2-.45-.34-.95-.14-.5-.2-1.03-.55.97-1.45 1.6-.89.64-2.14.64-2.07 0-3.2-1.07-1.12-1.07-1.12-2.91 0-1.94 1.49-3.01 1.5-1.07 4.37-1.07h1.99v-1.05q0-.95-.5-1.48-.5-.52-1.48-.52-.87 0-1.34.42-.47.42-.47 1.16l-3.44-.01-.01-.07q-.09-1.67 1.45-2.89 1.54-1.21 4.04-1.21 2.37 0 3.85 1.2 1.47 1.2 1.47 3.42v5.46q0 .93.15 1.75.14.81.44 1.62Zm-6.82-2.38q.94 0 1.67-.46.73-.47.99-1.08v-1.87h-1.99q-1.14 0-1.72.57-.59.57-.59 1.37 0 .66.44 1.07.44.4 1.2.4Zm8.38-3.86v-.25q0-3.13 1.36-5.05 1.37-1.91 3.82-1.91 1.11 0 1.95.5.84.5 1.44 1.43l.28-1.69h3.08v13.15q0 2.57-1.69 3.98-1.69 1.41-4.71 1.41-1 0-2.12-.27t-2.08-.75l.66-2.66q.82.39 1.67.59.85.2 1.85.2 1.46 0 2.15-.61t.69-1.9v-1.2q-.58.75-1.38 1.14-.79.39-1.82.39-2.42 0-3.79-1.79-1.36-1.79-1.36-4.71Zm3.57-.25v.25q0 1.74.58 2.73.59 1 1.91 1 .82 0 1.38-.3.57-.3.91-.88v-5.73q-.34-.6-.91-.93-.56-.33-1.36-.33-1.3 0-1.91 1.16-.6 1.16-.6 3.03Zm16.94 6.75q-2.86 0-4.56-1.83-1.71-1.84-1.71-4.66v-.48q0-2.95 1.61-4.85 1.62-1.9 4.34-1.89 2.68 0 4.15 1.61 1.48 1.61 1.48 4.36v1.94h-7.88l-.03.07q.1 1.31.87 2.15.78.84 2.11.84 1.18 0 1.96-.24.79-.23 1.71-.75l.97 2.2q-.81.66-2.11 1.09-1.31.44-2.91.44Zm-.32-10.97q-.98 0-1.56.76-.57.76-.71 1.99l.04.06h4.37v-.32q0-1.13-.53-1.81-.53-.68-1.61-.68Z"/></svg>